# xmcd
#
# Track frame offsets:
#	150
#	17945
#	36257
#	51630
#	71995
#	72579
#	80574
#	100651
#	116757
#	133731
#	147500
#	163798
#	180557
#	200930
#	219814
#	236641
#	252927
#	271026
#	285418
#	299686
#	319215
#	337831
#
# Disc length: 4713 seconds
#
# Revision: 0
# Processed by: cddbd v1.4PL0 Copyright (c) Steve Scherf et al.
# Submitted via: MusicWizard 6.0.1
#
DISCID=66126716
DTITLE=Various Artist - 3 Of Hearts
DYEAR=1900
DGENRE=Country
TTITLE0=3 Of Hearts - Arizona Rain
TTITLE1=Alan Jackson - Where I Come From
TTITLE2=Brad Paisley - Wrapped Around
TTITLE3=Brooks And Dunn - Only In America
TTITLE4=Brooks And Dunn - Missing You
TTITLE5=Carolyn Dawn Johnson - Complicated
TTITLE6=Carolyn Dawn Johnson - Georgia
TTITLE7=Carolyn Dawn Johnson - I Could Feel The Wind
TTITLE8=Carolyn Dawn Johnson - I Don't Want To Go
TTITLE9=Carolyn Dawn Johnson - Then What
TTITLE10=Lee Ann Womack - Why They Call It Falling
TTITLE11=Dan Seals - Bop
TTITLE12=Diamond Rio - Sweet Summer
TTITLE13=Dolly Parton and Kenny Rogers - Islands In The Stream
TTITLE14=Faith Hill - There You'll Be
TTITLE15=Garth Brooks - Two Pina Coladas
TTITLE16=Jessica Andrews - Helplessly, Hopelessly
TTITLE17=John Denver - Thank God I'm A Country Boy
TTITLE18=Kenny Chesney - How Forever Feels
TTITLE19=All-4-One - I Swear
TTITLE20=Leahy - Call To Dance
TTITLE21=Lisa Brokop - I'd Like To See You Try
EXTD=
EXTT0=
EXTT1=
EXTT2=
EXTT3=
EXTT4=
EXTT5=
EXTT6=
EXTT7=
EXTT8=
EXTT9=
EXTT10=
EXTT11=
EXTT12=
EXTT13=
EXTT14=
EXTT15=
EXTT16=
EXTT17=
EXTT18=
EXTT19=
EXTT20=
EXTT21=
PLAYORDER=
